<svg width="33" height="32" viewBox="0 0 33 32" fill="none" xmlns="http://www.w3.org/2000/svg">
<g id="006-search">
<g id="Group">
<path id="Vector" d="M14.0617 23.3113C16.2963 23.3114 18.4669 22.5956 20.2298 21.2772L26.8806 27.6629C27.3774 28.1236 28.1691 28.1104 28.6489 27.6334C29.117 27.1681 29.117 26.4303 28.6489 25.965L21.9981 19.5793C25.4053 15.3681 24.6119 9.3023 20.2259 6.03089C15.8399 2.75948 9.52239 3.52128 6.11519 7.73247C2.70799 11.9437 3.50141 18.0095 7.8874 21.2809C9.65315 22.5979 11.8257 23.3124 14.0617 23.3113ZM8.71787 8.52615C11.6692 5.69235 16.4543 5.6923 19.4058 8.52604C22.3572 11.3598 22.3572 15.9542 19.4059 18.788C16.4545 21.6218 11.6694 21.6218 8.71797 18.7881C8.71792 18.788 8.71792 18.788 8.71787 18.788C5.7665 15.9749 5.74911 11.3972 8.67897 8.56349C8.69192 8.55101 8.70487 8.53858 8.71787 8.52615Z" fill="#2BC155"/>
</g>
</g>
</svg>
