<svg width="22" height="22" viewBox="0 0 22 22" fill="none" xmlns="http://www.w3.org/2000/svg">
<g id="Edit Square">
<path id="Stroke 1" d="M10.4923 1.789H6.7533C3.6783 1.789 1.75031 3.966 1.75031 7.048V15.362C1.75031 18.444 3.6693 20.621 6.7533 20.621H15.5773C18.6623 20.621 20.5813 18.444 20.5813 15.362V11.334" stroke="#717579" stroke-width="2" stroke-linecap="round" stroke-linejoin="round"/>
<path id="Stroke 3" fill-rule="evenodd" clip-rule="evenodd" d="M7.82782 9.9209L15.3008 2.4479C16.2318 1.5179 17.7408 1.5179 18.6718 2.4479L19.8888 3.6649C20.8198 4.5959 20.8198 6.1059 19.8888 7.0359L12.3798 14.5449C11.9728 14.9519 11.4208 15.1809 10.8448 15.1809H7.09882L7.19282 11.4009C7.20682 10.8449 7.43382 10.3149 7.82782 9.9209Z" stroke="#717579" stroke-width="2" stroke-linecap="round" stroke-linejoin="round"/>
<path id="Stroke 5" d="M14.1652 3.60251L18.7312 8.16851" stroke="#717579" stroke-width="2" stroke-linecap="round" stroke-linejoin="round"/>
</g>
</svg>
