<svg width="22" height="26" viewBox="0 0 22 26" fill="none" xmlns="http://www.w3.org/2000/svg">
<g id="Notification">
<path id="Path_425" fill-rule="evenodd" clip-rule="evenodd" d="M1.08446 15.085V14.8295C1.12194 14.0736 1.36419 13.3412 1.78624 12.7079C2.48875 11.947 2.96965 11.0147 3.1785 10.0086C3.1785 9.23106 3.1785 8.4424 3.24641 7.66484C3.5973 3.92146 7.29865 1.33331 10.9547 1.33331H11.0453C14.7014 1.33331 18.4027 3.92146 18.7649 7.66484C18.8328 8.4424 18.7649 9.23106 18.8215 10.0086C19.0332 11.017 19.5136 11.9522 20.2138 12.719C20.639 13.3467 20.8816 14.0764 20.9155 14.8295V15.0738C20.9408 16.0894 20.5911 17.0796 19.9308 17.8619C19.0583 18.7767 17.8743 19.3458 16.603 19.4615C12.875 19.8614 9.1137 19.8614 5.38572 19.4615C4.11583 19.3408 2.93355 18.7725 2.0579 17.8619C1.40783 17.079 1.06278 16.0947 1.08446 15.085Z" stroke="#2BC155" stroke-width="2" stroke-linecap="round" stroke-linejoin="round"/>
<path id="Path_421" d="M8.14746 23.327C8.72995 24.0581 9.58533 24.5313 10.5243 24.6418C11.4633 24.7523 12.4084 24.491 13.1505 23.9157C13.3788 23.7456 13.5841 23.5478 13.7617 23.327" stroke="#2BC155" stroke-width="2" stroke-linecap="round" stroke-linejoin="round"/>
</g>
</svg>
