<svg width="24" height="26" viewBox="0 0 24 26" fill="none" xmlns="http://www.w3.org/2000/svg">
<g id="Setting">
<path id="Path_33946" fill-rule="evenodd" clip-rule="evenodd" d="M22.2746 7.89418L21.5485 6.63407C20.9341 5.56783 19.5727 5.2 18.505 5.8118V5.8118C17.9968 6.11119 17.3903 6.19614 16.8194 6.04789C16.2484 5.89965 15.7599 5.5304 15.4615 5.02156C15.2696 4.69813 15.1664 4.32975 15.1625 3.95367V3.95367C15.1798 3.35072 14.9523 2.76643 14.5319 2.33391C14.1114 1.90139 13.5338 1.65747 12.9306 1.65772H11.4676C10.8767 1.65771 10.3101 1.89319 9.8932 2.31206C9.47634 2.73093 9.24357 3.29865 9.24642 3.8896V3.8896C9.2289 5.10971 8.23476 6.08957 7.01453 6.08945C6.63845 6.08554 6.27007 5.98239 5.94664 5.79044V5.79044C4.87894 5.17864 3.5175 5.54647 2.90317 6.61271L2.12361 7.89418C1.51002 8.95909 1.87284 10.3197 2.9352 10.9377V10.9377C3.62576 11.3363 4.05116 12.0731 4.05116 12.8705C4.05116 13.6679 3.62576 14.4047 2.9352 14.8034V14.8034C1.87419 15.4172 1.51097 16.7745 2.12361 17.8362V17.8362L2.86045 19.107C3.14829 19.6264 3.63124 20.0096 4.20243 20.172C4.77362 20.3343 5.38595 20.2623 5.90393 19.972V19.972C6.41313 19.6749 7.01992 19.5935 7.58943 19.7459C8.15894 19.8983 8.64398 20.2718 8.93673 20.7836C9.12868 21.107 9.23183 21.4754 9.23574 21.8515V21.8515C9.23574 23.0841 10.235 24.0833 11.4676 24.0833H12.9306C14.1591 24.0834 15.1566 23.0906 15.1625 21.8621V21.8621C15.1597 21.2693 15.3939 20.7 15.8131 20.2808C16.2322 19.8616 16.8016 19.6274 17.3944 19.6303C17.7696 19.6403 18.1364 19.743 18.4623 19.9293V19.9293C19.5272 20.5429 20.8878 20.18 21.5058 19.1177V19.1177L22.2746 17.8362C22.5723 17.3254 22.6539 16.717 22.5016 16.1457C22.3493 15.5745 21.9755 15.0875 21.463 14.7927V14.7927C20.9506 14.4979 20.5768 14.011 20.4245 13.4397C20.2722 12.8685 20.3538 12.2601 20.6515 11.7492C20.845 11.4114 21.1251 11.1312 21.463 10.9377V10.9377C22.519 10.32 22.881 8.96737 22.2746 7.90485V7.90485V7.89418Z" stroke="#828282" stroke-width="2" stroke-linecap="round" stroke-linejoin="round"/>
<ellipse id="Ellipse_737" cx="12.2044" cy="12.8706" rx="3.07552" ry="3.07551" stroke="#828282" stroke-width="2" stroke-linecap="round" stroke-linejoin="round"/>
</g>
</svg>
