<svg width="22" height="22" viewBox="0 0 22 22" fill="none" xmlns="http://www.w3.org/2000/svg">
<g id="Graph">
<path id="Path_33948" fill-rule="evenodd" clip-rule="evenodd" d="M20.5241 8.75284C19.885 4.81944 16.544 1.89321 12.5607 1.77801C12.3713 1.77059 12.1867 1.83878 12.0477 1.96755C11.9086 2.09632 11.8264 2.27511 11.8193 2.46451V2.46451V2.52859L12.2678 9.23797C12.2972 9.68962 12.6855 10.0329 13.1374 10.0068L19.865 9.55833C20.0546 9.54432 20.2308 9.45528 20.3545 9.31096C20.4782 9.16663 20.5392 8.97894 20.5241 8.78946V8.75284Z" stroke="#717579" stroke-width="2" stroke-linecap="round" stroke-linejoin="round"/>
<path id="Path_33949" d="M7.90163 5.76886C8.32959 5.66987 8.76753 5.88884 8.94511 6.2906C8.99163 6.38509 9.01959 6.48763 9.02749 6.59266C9.11902 7.89243 9.31124 10.7391 9.42108 12.2769C9.43984 12.5539 9.56821 12.812 9.77779 12.9941C9.98737 13.1762 10.2609 13.2672 10.5378 13.2471V13.2471L16.1854 12.8993C16.4375 12.8841 16.6847 12.9738 16.8684 13.1472C17.0522 13.3205 17.1561 13.562 17.1556 13.8146V13.8146C16.9268 17.225 14.4765 20.076 11.1393 20.815C7.80214 21.5541 4.3773 20.004 2.73001 17.0091C2.23826 16.1472 1.92684 15.1942 1.81467 14.2082C1.76672 13.9056 1.74833 13.5991 1.75975 13.2929C1.76947 9.65089 4.32726 6.51282 7.89248 5.76886" stroke="#717579" stroke-width="2" stroke-linecap="round" stroke-linejoin="round"/>
</g>
</svg>
